<svg width="500" height="500" viewBox="0 0 500 500" fill="none" xmlns="http://www.w3.org/2000/svg">
    <path d="M250.001 436.363L331.819 354.545L363.637 386.364L250.001 500L136.364 386.364L168.183 354.545L250.001 436.363Z"/>
    <path d="M145.455 168.182L63.6368 250L88.6362 274.999L125 238.636L147.727 261.363L111.364 297.727L145.455 331.818L113.636 363.636L0 250L113.636 136.364L145.455 168.182Z"/>
    <path d="M363.637 113.636L331.819 145.455L297.728 111.364L261.364 147.727L238.636 125L275 88.6364L250.001 63.637L168.183 145.455L136.364 113.636L250.001 0.000104989L363.637 113.636Z"/>
    <path d="M500 250L386.364 363.636L354.545 331.818L436.363 250L411.363 225L375 261.363L352.273 238.637L388.636 202.273L354.545 168.182L386.364 136.364L500 250Z"/>
    <circle cx="250" cy="250" r="17.5"/>
</svg>
